<svg width="750" height="347" viewBox="0 0 750 347" fill="none" xmlns="http://www.w3.org/2000/svg">
<path d="M142.391 286.31C125.765 286.31 110.211 283.306 95.7297 277.299C81.3559 271.292 69.0737 263.033 58.8833 252.52C48.8001 241.901 40.8623 229.136 35.0698 214.226C29.2774 199.208 26.3811 183.011 26.3811 165.634C26.3811 142.464 31.3155 121.707 41.1841 103.365C51.0527 85.0219 64.783 70.7553 82.3749 60.5648C100.074 50.2671 120.08 45.1183 142.391 45.1183C162.236 45.1183 180.042 49.1944 195.811 57.3468C211.579 65.4991 223.915 76.9768 232.818 91.7797C241.828 106.475 246.548 123.209 246.977 141.981L201.442 145.199C200.477 125.891 194.684 110.659 184.065 99.503C173.445 88.2399 159.554 82.6083 142.391 82.6083C121.796 82.6083 104.901 90.3852 91.7072 105.939C78.5133 121.493 71.9163 141.391 71.9163 165.634C71.9163 189.983 78.5133 209.989 91.7072 225.65C104.901 241.204 121.796 248.981 142.391 248.981C159.447 248.981 173.284 243.456 183.904 232.408C194.631 221.252 200.477 206.342 201.442 187.677L246.977 191.056C246.548 209.506 241.828 225.972 232.818 240.453C223.807 254.934 211.418 266.197 195.65 274.242C179.881 282.287 162.128 286.31 142.391 286.31Z" fill="white"/>
<path d="M257.606 114.864H302.799V279.627H257.606V114.864Z" fill="url(#paint0_linear_651_363)"/>
<path d="M257.606 114.864H302.799V279.627H257.606V114.864Z" fill="url(#paint1_linear_651_363)"/>
<path d="M257.606 114.864H302.799V279.627H257.606V114.864Z" stroke="url(#paint2_linear_651_363)" stroke-width="0.941504"/>
<path d="M369.288 285.31C352.018 285.31 338.341 280.912 328.258 272.116C318.282 263.32 313.294 251.36 313.294 236.235C313.294 219.93 319.409 207.272 331.637 198.262C343.973 189.144 361.994 184.103 385.7 183.137C399.43 182.494 409.406 180.616 415.628 177.506C421.957 174.288 424.638 169.782 423.673 163.99C422.815 159.056 419.811 155.033 414.662 151.922C409.621 148.812 403.507 147.256 396.32 147.256C386.773 147.256 378.674 149.884 372.023 155.14C365.373 160.289 362.048 166.564 362.048 173.966L317.96 170.587C317.96 152.995 325.308 138.514 340.004 127.143C354.807 115.666 373.579 109.927 396.32 109.927C418.417 109.927 435.955 115.612 448.934 126.983C462.021 138.246 468.564 153.424 468.564 172.518V280H423.995V247.015C416.593 272.545 398.358 285.31 369.288 285.31ZM358.829 230.603C358.829 236.396 360.814 240.74 364.783 243.636C368.859 246.532 374.222 247.981 380.873 247.981C393.209 247.981 403.453 243.314 411.605 233.982C419.865 224.65 423.995 213.279 423.995 199.871V196.653C416.808 204.805 406.027 209.847 391.653 211.778C390.581 211.885 388.65 212.1 385.861 212.421C383.072 212.636 380.927 212.85 379.425 213.065C377.923 213.279 375.939 213.655 373.472 214.191C371.004 214.728 369.02 215.425 367.518 216.283C366.124 217.034 364.676 218.053 363.174 219.34C361.672 220.52 360.546 222.075 359.795 224.006C359.151 225.937 358.829 228.136 358.829 230.603Z" fill="url(#paint3_linear_651_363)"/>
<path d="M622.34 260.692C606.25 277.104 585.708 285.31 560.715 285.31C535.722 285.31 515.126 277.104 498.929 260.692C482.839 244.173 474.794 223.148 474.794 197.618C474.794 172.089 482.839 151.118 498.929 134.706C515.126 118.187 535.722 109.927 560.715 109.927C585.708 109.927 606.25 118.187 622.34 134.706C638.43 151.118 646.476 172.089 646.476 197.618C646.476 223.148 638.43 244.173 622.34 260.692ZM531.109 160.933C523.815 170.051 520.168 182.279 520.168 197.618C520.168 212.958 523.815 225.186 531.109 234.304C538.511 243.422 548.379 247.981 560.715 247.981C573.051 247.981 582.866 243.422 590.16 234.304C597.561 225.186 601.262 212.958 601.262 197.618C601.262 182.279 597.561 170.051 590.16 160.933C582.866 151.815 573.051 147.256 560.715 147.256C548.379 147.256 538.511 151.815 531.109 160.933Z" fill="white"/>
<path d="M309.673 60.8668C309.677 62.4542 308.912 63.2865 307.308 63.3679C303.923 63.5425 300.626 64.158 297.397 65.2449C293.551 66.5384 290.761 68.9871 289.251 72.9243C288.074 75.9958 286.938 79.0876 285.689 82.1271C284.922 83.9924 284.062 85.833 283.071 87.579C282.561 88.4781 281.763 89.2798 280.932 89.8866C279.642 90.8294 278.251 90.3973 277.606 88.8928C277.242 88.0416 277.106 87.0697 276.956 86.1371C276.591 83.8804 276.344 81.6019 275.932 79.3568C274.43 71.1754 269.568 66.2226 261.933 64.1769C259.099 63.4174 256.149 63.1235 253.254 62.607C252.651 62.4993 252.054 62.3596 251.46 62.2083C250.564 61.9799 250.136 61.3222 250.08 60.4143C250.024 59.5122 250.368 58.7847 251.176 58.3861C251.615 58.1693 252.091 58.0179 252.56 57.8797C262.617 54.897 270.659 49.0305 276.441 39.931C276.88 39.2413 277.278 38.524 277.686 37.8125C278.123 37.0486 278.562 36.3371 278.17 35.3274C278 34.8894 278.196 34.1838 278.435 33.7153C278.91 32.7826 279.727 32.688 280.348 33.5276C281.314 34.8371 282.885 35.7784 282.747 37.814C282.715 38.2985 283.195 38.8354 283.479 39.3228C287.867 46.8524 293.893 52.4424 301.763 55.8136C303.685 56.6372 305.652 57.3486 307.609 58.082C309.011 58.6072 309.669 59.4584 309.673 60.8697V60.8668ZM298.328 61.0487C297.868 60.7548 297.627 60.5656 297.359 60.4318C293.456 58.4879 290.24 55.6347 287.699 52.0569C285.666 49.1949 283.933 46.1045 282.076 43.1087C281.729 42.55 281.425 41.9621 280.972 41.159C280.458 41.9592 280.148 42.4903 279.792 42.9864C278.474 44.8241 277.237 46.736 275.795 48.4601C272.958 51.8517 269.584 54.6045 265.915 56.9791C265.387 57.3195 264.647 57.4898 264.486 58.3759C271.558 60.1102 275.61 65.0557 277.871 71.8403C278.611 74.0606 279.127 76.3595 279.744 78.6235C279.919 79.2651 280.088 79.9097 280.372 80.9762C280.96 80.0727 281.342 79.5285 281.682 78.9567C283.387 76.0831 285.009 73.1542 286.795 70.3373C289.254 66.4598 292.577 63.6124 296.752 61.8708C297.239 61.6671 297.693 61.3804 298.328 61.0458V61.0487Z" fill="url(#paint4_linear_651_363)" stroke="url(#paint5_linear_651_363)" stroke-width="4.87628"/>
<path d="M665.806 259.785L656.49 259.055C656.534 254.4 657.692 244.669 659.964 229.864L662.671 204.209C669.298 167.242 673.792 133.931 676.154 104.276C678.223 85.7446 681.764 66.8291 686.777 47.5291C691.03 45.0661 696.387 43.3161 702.847 42.2791C709.886 41.1493 714.702 41.2664 717.294 42.6306L717.41 43.3537C718.757 51.7424 712.903 93.5303 699.85 168.717C697.728 182.608 696.059 190.393 694.845 192.071C691.033 228.092 687.649 248.911 684.694 254.528C682.646 255.945 679.164 257.048 674.246 257.837L665.806 259.785Z" fill="url(#paint6_linear_651_363)"/>
<path d="M698 301.76C698.004 303.225 697.297 303.993 695.817 304.068C692.694 304.229 689.651 304.797 686.671 305.8C683.122 306.994 680.547 309.254 679.154 312.887C678.067 315.722 677.019 318.575 675.866 321.38C675.159 323.101 674.365 324.8 673.451 326.411C672.98 327.241 672.244 327.981 671.476 328.541C670.286 329.411 669.003 329.012 668.407 327.624C668.071 326.838 667.945 325.941 667.807 325.08C667.471 322.998 667.243 320.895 666.862 318.823C665.477 311.273 660.99 306.703 653.944 304.815C651.329 304.114 648.606 303.843 645.935 303.366C645.378 303.267 644.827 303.138 644.279 302.998C643.452 302.787 643.057 302.18 643.005 301.343C642.954 300.51 643.271 299.839 644.017 299.471C644.422 299.271 644.861 299.131 645.294 299.004C654.575 296.251 661.996 290.837 667.332 282.44C667.737 281.803 668.105 281.141 668.481 280.485C668.885 279.78 669.29 279.123 668.927 278.192C668.771 277.787 668.952 277.136 669.172 276.704C669.611 275.843 670.365 275.756 670.938 276.531C671.83 277.739 673.279 278.608 673.152 280.486C673.122 280.933 673.565 281.429 673.827 281.879C677.877 288.827 683.438 293.986 690.7 297.097C692.474 297.857 694.289 298.513 696.095 299.19C697.389 299.675 697.996 300.46 698 301.763V301.76ZM687.53 301.928C687.106 301.657 686.883 301.482 686.636 301.359C683.034 299.565 680.066 296.932 677.722 293.63C675.846 290.989 674.246 288.137 672.532 285.372C672.213 284.857 671.932 284.314 671.514 283.573C671.039 284.312 670.753 284.802 670.424 285.26C669.208 286.955 668.067 288.72 666.736 290.311C664.118 293.441 661.004 295.981 657.618 298.172C657.132 298.487 656.448 298.644 656.3 299.461C662.826 301.062 666.565 305.626 668.652 311.887C669.335 313.936 669.811 316.057 670.38 318.147C670.542 318.739 670.697 319.334 670.96 320.318C671.502 319.484 671.855 318.982 672.169 318.454C673.742 315.802 675.239 313.099 676.887 310.5C679.157 306.922 682.223 304.294 686.076 302.687C686.525 302.499 686.944 302.234 687.53 301.925V301.928Z" fill="url(#paint7_linear_651_363)" stroke="url(#paint8_linear_651_363)" stroke-width="4.5"/>
<defs>
<linearGradient id="paint0_linear_651_363" x1="280.203" y1="114.864" x2="280.203" y2="279.627" gradientUnits="userSpaceOnUse">
<stop stop-color="#429ED6"/>
<stop offset="1" stop-color="#F58DD7"/>
</linearGradient>
<linearGradient id="paint1_linear_651_363" x1="280.203" y1="114.864" x2="280.203" y2="279.627" gradientUnits="userSpaceOnUse">
<stop stop-color="#429ED6"/>
<stop offset="1" stop-color="#F58DD7"/>
</linearGradient>
<linearGradient id="paint2_linear_651_363" x1="280.203" y1="114.864" x2="280.203" y2="279.627" gradientUnits="userSpaceOnUse">
<stop stop-color="#429ED6"/>
<stop offset="1" stop-color="#F58DD7"/>
</linearGradient>
<linearGradient id="paint3_linear_651_363" x1="479" y1="-1" x2="479" y2="317" gradientUnits="userSpaceOnUse">
<stop offset="0.3" stop-color="#429ED6"/>
<stop offset="1" stop-color="#F58DD7"/>
</linearGradient>
<linearGradient id="paint4_linear_651_363" x1="279.874" y1="32.9526" x2="279.874" y2="90.3844" gradientUnits="userSpaceOnUse">
<stop stop-color="#429ED6"/>
<stop offset="1" stop-color="#F58DD7"/>
</linearGradient>
<linearGradient id="paint5_linear_651_363" x1="279.874" y1="32.9526" x2="279.874" y2="90.3844" gradientUnits="userSpaceOnUse">
<stop stop-color="#429ED6"/>
<stop offset="1" stop-color="#F58DD7"/>
</linearGradient>
<linearGradient id="paint6_linear_651_363" x1="651.001" y1="-7.73969" x2="704.569" y2="325.988" gradientUnits="userSpaceOnUse">
<stop stop-color="#F58DD7"/>
<stop offset="1" stop-color="#429ED6"/>
</linearGradient>
<linearGradient id="paint7_linear_651_363" x1="670.5" y1="276" x2="670.5" y2="329" gradientUnits="userSpaceOnUse">
<stop stop-color="#429ED6"/>
<stop offset="1" stop-color="#F58DD7"/>
</linearGradient>
<linearGradient id="paint8_linear_651_363" x1="670.5" y1="276" x2="670.5" y2="329" gradientUnits="userSpaceOnUse">
<stop stop-color="#429ED6"/>
<stop offset="1" stop-color="#F58DD7"/>
</linearGradient>
</defs>
</svg>
