<svg width="346" height="338" viewBox="0 0 346 338" fill="none" xmlns="http://www.w3.org/2000/svg">
<path d="M67.142 200.538C67.1796 200.521 67.2154 200.5 67.249 200.476C71.1633 197.672 75.4968 195.483 80.0692 193.15C81.5055 192.42 82.9703 191.676 84.4543 190.899C85.4043 190.401 85.6265 189.186 84.9371 188.364C83.6263 186.852 82.1554 185.14 80.9537 183.271C79.3824 180.821 77.6853 178.395 76.0553 176.041C71.7619 169.828 67.2956 163.388 64.3044 156.443C61.5959 150.186 62.3883 143.075 66.4804 136.975C71.1728 129.951 79.3849 125.678 87.881 125.807C94.2807 125.908 100.598 127.24 107.272 128.681C108.162 128.871 109.055 129.062 109.954 129.253C112.487 129.788 114.425 127.259 113.272 124.944C111.046 120.477 108.713 115.854 107.303 111.082C106.803 109.402 106.249 107.679 105.683 105.928C103.166 98.0837 99.8645 85.4044 101 78C103.159 64.0605 107.668 60.884 113.62 58.1571C119.178 55.6112 126.866 57.4736 137.169 63.8297C143.511 67.7402 147.2 71.7418 153.259 77.4861C154.294 78.468 155.226 79.5747 156.096 80.6808C158.296 83.4756 161.967 82.8576 163.34 79.5813C164.969 75.6995 166.644 71.6944 169.298 68.3316C177.168 58.4895 185.72 53.1741 194.033 52.9784C201.302 52.8175 208.319 56.487 214.919 63.9261C228.586 79.3741 236.893 98.5387 241.065 124.232C241.76 128.413 242.172 132.723 242.588 136.894C242.759 138.456 244.816 138.984 245.788 137.75C252.966 128.638 262.247 123.002 271.264 117.486L273.022 116.408C279.529 112.438 288.298 113.976 294.23 120.188C304.243 130.664 305.92 150.787 297.824 163.255C286.201 181.121 273.899 198.106 260.163 216.872C256.758 221.499 256.898 224.4 260.642 228.751C265.431 234.259 269.658 240.4 273.793 246.344C274.483 247.323 275.144 248.315 275.834 249.294C277.306 251.38 277.777 253.516 277.141 255.103C276.777 256.019 275.89 257.209 273.595 257.715C271.118 258.271 266.981 257.372 265.145 255.384C261.298 251.182 257.628 246.695 254.105 242.379C251.116 238.705 248.006 234.915 244.82 231.331C240.965 226.963 240.918 224.189 244.617 219.462C258.141 202.088 270.988 184.58 282.799 167.344C288.317 159.295 294.012 148.438 289.036 135.62C287.284 131.072 285.515 128.713 283.306 127.919C281.274 127.214 278.74 127.795 275.285 129.787C268.19 133.89 261.918 139.115 257.17 144.903C253.825 148.991 251.208 153.768 248.664 158.41C247.036 161.405 245.309 164.48 243.434 167.383C242.234 169.228 238.862 170.807 236.959 170.384C234.864 169.913 232.248 167.123 231.955 165.076C231.168 159.507 230.831 153.8 230.529 148.246C230.444 146.65 230.358 145.053 230.231 143.441C228.484 115.819 222.402 96.1459 210.55 79.5939C204.63 71.332 195.511 66.1377 189.761 67.818C180.813 70.4178 173.691 81.144 174.578 90.7912C175.104 96.6847 176.06 102.62 176.978 108.402C177.758 113.361 178.574 118.475 179.114 123.509C179.762 129.518 181.175 140.526 180.761 148.384C180.662 150.099 179.622 156.232 177.679 156.611C176.239 156.896 172.25 152.453 171.65 150.853C169.401 145 165.402 132.382 163.509 125.819C157.88 106.314 149.865 86.743 129.471 75.6038C128.436 75.044 126.058 73.8092 123.635 73.0442C120.113 71.9323 115.25 72.5316 114 76C113.2 78.2188 113.224 80.7239 113.356 83.0794C113.387 83.6285 113.458 84.3081 113.597 85.2146C113.831 86.7399 114.287 88.2225 114.875 89.6495C116.219 92.9063 117.588 96.0683 118.846 99.3518C122.848 109.754 127.004 120.493 131.973 130.622C135.68 138.159 140.414 145.329 145.016 152.286C147.264 155.687 149.592 159.187 151.753 162.695C154.64 167.337 153.634 172.126 149.185 175.152C147.735 176.157 146.321 176.499 145.038 176.234C142.722 175.728 141.12 173.36 139.657 170.998C129.584 154.38 114.173 144.196 92.4407 139.872C86.8669 138.745 81.3218 138.423 78.5952 143.557C75.8404 148.704 76.4053 154.682 80.1751 160.351C92.027 178.164 108.543 191.489 124.651 203.262C129.737 206.964 127.802 210.407 126.09 213.44L125.779 214.026C124.909 215.549 123.576 217.625 121.479 218.041C119.913 218.349 118.212 217.697 116.197 216.064C109.491 210.548 100.856 207.518 89.0163 206.432C81.3452 205.721 70.2535 211.382 68.5429 216.868C66.2564 224.221 70.9321 228.963 76.2986 232.98C103.025 252.907 134.018 258.577 168.368 249.793C172.893 248.64 176.231 248.917 178.757 253.962C180.96 258.304 184.063 262.301 186.812 265.676C188.681 267.956 190.675 270.212 192.59 272.368C195.91 276.095 199.365 279.965 202.184 284.161C203.638 286.357 202.573 292.502 200.421 294.136C200.249 294.283 200.024 294.386 199.77 294.502C197.259 295.652 192.057 295.037 190.27 293.231C185.649 288.532 181.375 283.402 177.235 278.414C174.791 275.478 172.254 272.414 169.684 269.502C168.172 267.775 165.687 266.085 164.316 266.372C149.763 269.188 135.061 267.745 120.828 266.358L120.122 266.307C98.2747 264.183 79.3368 255.615 63.8257 240.909C56.016 233.513 52.4371 226.701 52.9053 220.147C53.3772 213.468 58.0042 207.092 67.0349 200.6C67.0683 200.576 67.1046 200.555 67.142 200.538Z" fill="white"/>
<path d="M204.5 198C204.253 191.229 204.783 190.113 206 184C207.237 177.708 209.807 174.849 213.842 170.035C214.348 169.429 215.179 169.082 216.435 168.916C218.471 168.664 220.462 169.354 221.983 170.804C223.476 172.267 224.216 174.246 224.024 176.277C223.902 177.423 223.584 178.216 223.052 178.767C213.658 188.489 214.5 195.5 216.5 205.5C217.5 210 219.5 213.5 218 217C217.306 218.238 216.793 219.497 215.439 220.118C214.987 220.325 214.482 220.488 213.963 220.623C212.534 221.006 210.918 220.314 208.887 219.166C205.329 217.15 204.654 213.348 204.5 209.226C204.476 208.283 204.552 203.93 204.5 203L204.5 198Z" fill="white"/>
<path d="M56.2711 245.428C56.9096 246.328 57.183 247.476 57.4354 248.584C57.5737 249.207 57.7329 249.868 57.9484 250.449C60.3156 256.741 63.7636 260.058 69.0348 261.17C69.609 261.308 70.2604 261.404 70.8731 261.521C73.2437 261.934 75.7125 262.343 77.0867 263.817C78.7054 265.558 82.5073 270.078 82.4339 274.128C82.4299 274.902 82.3245 275.582 82.1476 276.176C81.8998 277.007 81.4881 277.628 80.9123 278.039C79.1672 279.33 76.3407 278.492 73.8502 277.721L73.3742 277.579C72.2138 277.235 71.0269 276.98 69.8399 276.725C69.2955 276.595 68.7423 276.496 68.2276 276.376C54.9109 274.008 47.0668 265.121 44.2834 249.141C43.9699 247.368 44.8988 245.447 45.7545 243.988C46.6278 242.47 48.1952 241.449 49.9579 241.293C51.6908 241.129 53.3337 241.81 54.4281 243.136C55.1229 243.956 55.7075 244.711 56.2028 245.44L56.2711 245.428Z" fill="url(#paint0_linear_490_19)"/>
<path d="M251.963 37.8129C276.942 40.0558 291.764 50.988 299.991 73.2853C301.114 76.3484 302.509 80.1465 301.228 82.8521C300.646 84.0791 299.587 84.9495 298.052 85.4941C295.994 86.2102 293.033 83.9492 290.169 81.7782C289.087 80.945 288.609 80.2156 287.657 79.5951C286.96 79.1524 286.518 77.8185 286.119 76.9769C286.051 76.7931 286.024 76.7634 285.956 76.5797C280.099 59.4748 269.586 52.8394 250.35 53.4199C246.503 53.5421 243.711 52.6703 242.068 50.8323C241.038 49.6875 240.494 48.2174 240.438 46.4529C240.419 45.8647 240.46 45.2127 240.533 44.5596C240.682 43.4083 241.39 42.2393 242.655 40.9906C245.003 38.6539 248.414 37.5229 251.933 37.8448L251.963 37.8129Z" fill="url(#paint1_linear_490_19)"/>
<path d="M271.062 91.2111C270.303 90.4089 269.872 89.3111 269.466 88.2484C269.242 87.6513 268.991 87.0189 268.696 86.4738C265.469 80.5746 261.589 77.7722 256.214 77.4086C255.626 77.3522 254.967 77.3479 254.344 77.3176C251.939 77.2405 249.437 77.1804 247.869 75.9131C246.022 74.4161 241.623 70.4715 241.127 66.4517C241.022 65.6845 241.031 64.9969 241.123 64.3843C241.252 63.5266 241.572 62.8541 242.085 62.3669C243.631 60.8439 246.548 61.2791 249.122 61.6945L249.613 61.7678C250.81 61.9464 252.021 62.0332 253.232 62.1199C253.789 62.1718 254.351 62.1929 254.878 62.2402C268.395 62.7227 277.41 70.4249 282.41 85.8582C282.969 87.5701 282.32 89.6026 281.677 91.1665C281.026 92.7917 279.617 94.0221 277.894 94.4225C276.201 94.8276 274.479 94.3827 273.209 93.2225C272.406 92.5076 271.721 91.8417 271.128 91.1896L271.062 91.2111Z" fill="url(#paint2_linear_490_19)"/>
<path d="M59.8096 297.05C36.6021 287.563 25.6674 272.758 24.3901 249.032C24.2219 245.775 24.0109 241.736 26.0333 239.526C26.9517 238.525 28.2209 238.005 29.849 237.936C32.0271 237.856 34.1884 240.887 36.2844 243.804C37.0728 244.919 37.8177 245.957 38.5437 246.83C39.0794 247.458 39.0783 248.517 39.0883 249.419C39.099 249.615 39.0797 249.802 39.0904 249.998C39.6356 268.065 47.4068 277.51 65.9607 282.611C69.6731 283.625 72.0835 285.279 73.1103 287.518C73.7568 288.915 73.8424 290.48 73.3751 292.183C73.2193 292.75 72.9873 293.361 72.7253 293.964C72.2424 295.02 71.2205 295.929 69.6434 296.751C66.7098 298.293 63.116 298.371 59.8477 297.029L59.8096 297.05Z" fill="url(#paint3_linear_490_19)"/>
<defs>
<linearGradient id="paint0_linear_490_19" x1="85.046" y1="266.449" x2="42.4007" y2="253.741" gradientUnits="userSpaceOnUse">
<stop stop-color="#429ED6"/>
<stop offset="1" stop-color="#F58DD7"/>
</linearGradient>
<linearGradient id="paint1_linear_490_19" x1="240.958" y1="62.7573" x2="301.121" y2="60.8366" gradientUnits="userSpaceOnUse">
<stop stop-color="#F58DD7"/>
<stop offset="1" stop-color="#429ED6"/>
</linearGradient>
<linearGradient id="paint2_linear_490_19" x1="239.619" y1="74.4196" x2="283.632" y2="81.016" gradientUnits="userSpaceOnUse">
<stop stop-color="#F58DD7"/>
<stop offset="1" stop-color="#429ED6"/>
</linearGradient>
<linearGradient id="paint3_linear_490_19" x1="77.6928" y1="276.449" x2="19.6541" y2="260.522" gradientUnits="userSpaceOnUse">
<stop stop-color="#429ED6"/>
<stop offset="1" stop-color="#F58DD7"/>
</linearGradient>
</defs>
</svg>
